<svg xmlns="http://www.w3.org/2000/svg" viewBox="0 0 1600 900">
  <polygon fill="#cc3f47" points="957 450 539 900 1396 900" />
  <polygon fill="#b3373e" points="957 450 872.9 900 1396 900" />
  <polygon fill="#c8364e" points="-60 900 398 662 816 900" />
  <polygon fill="#b02f44" points="337 900 398 662 816 900" />
  <polygon fill="#c22f55" points="1203 546 1552 900 876 900" />
  <polygon fill="#ab294b" points="1203 546 1552 900 1162 900" />
  <polygon fill="#bb285c" points="641 695 886 900 367 900" />
  <polygon fill="#a52351" points="587 900 641 695 886 900" />
  <polygon fill="#b32362" points="1710 900 1401 632 1096 900" />
  <polygon fill="#9f1f57" points="1710 900 1401 632 1365 900" />
  <polygon fill="#aa2068" points="1210 900 971 687 725 900" />
  <polygon fill="#971c5d" points="943 900 1210 900 971 687" />
</svg> 
